<?xml version="1.0" encoding="UTF-8"?>
<svg width="500" height="500" viewBox="0 0 500 500" fill="none" xmlns="http://www.w3.org/2000/svg">
  <path d="M340.307 123.813C340.307 123.813 335.326 123.813 330.346 123.813C325.365 123.813 315.404 128.793 315.404 128.793L300.462 133.774C300.462 133.774 290.501 108.871 280.539 98.9097C270.578 88.9486 255.636 83.9679 245.674 83.9679C235.713 83.9679 220.771 88.9486 210.809 98.9097C200.848 108.871 190.886 133.774 190.886 133.774L175.944 128.793C175.944 128.793 165.983 123.813 161.002 123.813C156.021 123.813 151.04 123.813 151.04 123.813L131.118 348.072L318.882 398.84L368.689 373.937L340.307 123.813ZM255.636 163.657C250.655 168.638 245.674 173.619 235.713 173.619C225.752 173.619 220.771 168.638 215.79 163.657C210.809 158.677 205.828 148.716 205.828 143.735C205.828 138.754 210.809 133.774 215.79 133.774C220.771 133.774 230.732 138.754 235.713 138.754C240.694 138.754 250.655 133.774 255.636 133.774C260.617 133.774 265.597 138.754 265.597 143.735C265.597 148.716 260.617 158.677 255.636 163.657Z" fill="#95BF47"/>
  <path d="M245.674 83.9679C235.713 83.9679 220.771 88.9486 210.809 98.9097C200.848 108.871 190.886 133.774 190.886 133.774L175.944 128.793C175.944 128.793 165.983 123.813 161.002 123.813C156.021 123.813 151.04 123.813 151.04 123.813L131.118 348.072L318.882 398.84L368.689 373.937L340.307 123.813C340.307 123.813 335.326 123.813 330.346 123.813C325.365 123.813 315.404 128.793 315.404 128.793L300.462 133.774C300.462 133.774 290.501 108.871 280.539 98.9097C270.578 88.9486 255.636 83.9679 245.674 83.9679ZM255.636 163.657C250.655 168.638 245.674 173.619 235.713 173.619C225.752 173.619 220.771 168.638 215.79 163.657C210.809 158.677 205.828 148.716 205.828 143.735C205.828 138.754 210.809 133.774 215.79 133.774C220.771 133.774 230.732 138.754 235.713 138.754C240.694 138.754 250.655 133.774 255.636 133.774C260.617 133.774 265.597 138.754 265.597 143.735C265.597 148.716 260.617 158.677 255.636 163.657Z" fill="#5E8E3E"/>
</svg> 